<svg width="1024" height="1002" viewBox="0 0 1024 1002" fill="none" xmlns="http://www.w3.org/2000/svg">
<path d="M713.759 0L705.096 9.53491C701.661 13.315 697.766 16.6488 693.5 19.4581L692.65 20.018C687.36 23.5024 681.559 26.1415 675.457 27.8404L658.975 32.4286C652.728 34.1679 646.243 34.8997 639.764 34.5966L619.303 33.6391C609.093 33.1613 599.03 36.2115 590.803 42.2773V42.2773C578.239 51.542 561.739 53.5479 547.32 47.5635L543.304 45.8966C534.643 42.3018 525.173 41.1061 515.89 42.4352L510.84 43.1583C504.379 44.0833 497.812 43.9655 491.389 42.8094L473.462 39.5828C462.336 37.5803 450.873 38.7089 440.351 42.8425L410.058 54.7438C403.939 57.1474 398.25 60.5241 393.209 64.7433L383.077 73.2249L344.264 102.78C342.98 103.758 341.598 104.599 340.14 105.289L339.241 105.715C336.96 106.795 334.927 108.332 333.265 110.231V110.231C331.168 112.629 328.485 114.441 325.478 115.49L263.314 137.184C257.542 139.198 251.501 140.333 245.391 140.552L236.979 140.852C231.171 141.059 225.422 142.096 219.908 143.929L194.831 152.268C189.791 153.944 184.554 154.954 179.252 155.274L176.102 155.464C163.62 156.216 151.67 160.786 141.871 168.556L121.247 184.91C116.516 188.661 111.254 191.689 105.634 193.895L99.3977 196.343C91.465 199.457 84.3155 204.28 78.4572 210.469V210.469C67.9601 221.559 62.2573 236.339 62.5854 251.606L62.9906 270.466C63.1069 275.88 63.9438 281.255 65.4792 286.449L66.4197 289.63C67.6556 293.811 68.3628 298.13 68.5249 302.486V302.486C69.3886 325.697 54.8103 346.685 32.7586 353.98L30.5923 354.696C21.9453 357.556 12.7252 358.234 3.75299 356.668L0 356.013" transform="translate(0 1)" stroke="#F6F6F6" stroke-width="2"/>
<path d="M0 0L4.20404 3.00449C8.21026 5.8676 12.8081 7.79492 17.6584 8.64434V8.64434L27.5102 9.8327L114.977 16.7593L131.769 18.9856" transform="translate(895.23 1)" stroke="#F6F6F6" stroke-width="2"/>
<path d="M798.602 0L796.894 1.87996L752.108 52.8457C747.625 57.9471 742.322 62.2641 736.417 65.6186L728.558 70.0831L688.859 96.2305C686.081 98.0601 683.035 99.4459 679.831 100.338V100.338C675.328 101.591 671.155 103.815 667.604 106.852L663.851 110.061C660.875 112.605 657.633 114.821 654.181 116.669L614.049 138.149C605.833 142.547 596.717 145.003 587.404 145.33L576.744 145.705C572.629 145.849 568.509 145.576 564.449 144.891L543.104 141.287L462.221 119.655V119.655C458.516 118.914 454.668 119.644 451.493 121.691L443.402 126.906L397.198 151.405C389.758 155.35 383.215 160.794 377.981 167.392L348.966 203.976C344.742 209.302 338.465 212.598 331.682 213.051V213.051C329.133 213.221 326.574 212.985 324.099 212.351L268.608 198.149C262.96 196.704 257.134 196.076 251.307 196.284L236.979 196.795C231.171 197.003 225.422 198.039 219.908 199.873L213.218 202.097C207.908 203.863 203.004 206.673 198.797 210.363V210.363C186.659 221.006 181.705 237.669 186.056 253.215L188.091 260.486C189.159 264.301 190.645 267.988 192.52 271.478L227.995 337.497C228.146 337.779 228.33 338.04 228.544 338.277L229.011 338.793C229.629 339.475 229.853 340.426 229.606 341.313V341.313C229.54 341.548 229.507 341.79 229.507 342.034L229.507 342.251C229.507 342.713 229.432 343.173 229.284 343.611L228.222 346.765L192.293 419.696L183.545 437.602C177.847 449.266 168.576 458.808 157.081 464.84L139.029 474.313C136.363 475.712 133.874 477.426 131.617 479.418L130.829 480.113C120.589 489.148 106.112 491.6 93.4682 486.439V486.439C88.6515 484.473 84.319 481.485 80.77 477.681L60.1264 455.555L41.4045 438.819C32.9107 431.226 22.4602 426.164 11.2369 424.205L0 422.244" transform="translate(0 1)" stroke="#F6F6F6" stroke-width="2"/>
<path d="M14.1164 0L1.61678 30.6295C0.560375 33.2181 0.25545 36.0522 0.737018 38.8063L0.773688 39.0161C1.79498 44.8569 6.25867 49.4936 12.0565 50.7361V50.7361L14.1164 51.2688" transform="translate(1012.88 407.875)" stroke="#F6F6F6" stroke-width="2"/>
<path d="M228.023 70.7752L178.208 64.1708L165.871 62.031L113.912 55.7636L80.0414 49.832C71.0485 48.2571 62.5238 44.6836 55.0959 39.3752L0 0" transform="translate(798.977 1)" stroke="#F6F6F6" stroke-width="2"/>
<path d="M0 470.899V470.899C0.846384 470.438 1.80252 470.218 2.7651 470.261L101.72 474.718C105.887 474.906 110.059 474.501 114.111 473.515V473.515L117.611 472.397V472.397C122.691 470.082 127.383 466.998 131.523 463.254L174.87 424.053C177.806 421.398 180.993 419.035 184.387 416.998L222.759 393.96C226.391 391.779 229.786 389.226 232.89 386.341L235.978 383.471C243.042 376.905 251.562 372.107 260.839 369.472L287.582 361.875C301.87 357.816 311.728 344.765 311.727 329.911V329.911C311.727 326.306 311.14 322.725 309.989 319.309L301.608 294.43C299.495 288.156 298.417 281.58 298.417 274.96L298.416 248.986C298.415 243.77 299.135 238.548 300.538 233.524V233.524C305.223 216.741 317.351 202.907 333.413 196.153V196.153C339.318 193.67 344.762 190.211 349.518 185.92L368.017 169.232C373.706 164.1 378.378 157.941 381.787 151.079L390.308 133.926C392.515 129.483 395.256 125.326 398.47 121.547L416.628 100.196C420.501 95.6422 425.022 91.6821 430.047 88.4431L435.669 84.8195C448.993 76.2312 465.137 73.167 480.681 76.276L503.027 80.7453L526.273 83.0411L564.449 89.4867C568.509 90.1722 572.629 90.4449 576.745 90.3004L594.989 89.6599C604.009 89.3432 612.987 91.032 621.275 94.6046L671.888 116.421C674.128 117.386 676.578 117.764 679.005 117.519V117.519C682.642 117.152 686 115.41 688.396 112.65L726.163 69.1241C730.584 64.0291 735.82 59.7028 741.657 56.3211L775.184 36.8963L792.225 25.5216C796.296 22.8042 801.487 22.397 805.932 24.4462V24.4462C810.493 26.5487 815.828 26.0619 819.933 23.1688L828.382 17.214C832 14.6646 836.106 12.893 840.443 12.0112L888.205 2.29958C895.678 0.780003 903.37 0.675271 910.882 1.99081L912.889 2.3422L922.727 3.52893L933.197 5.34485C949.405 8.15612 953.596 29.482 939.657 38.2175V38.2175C938.9 38.6917 938.18 39.2216 937.502 39.803L917.216 57.2067C914.338 59.6765 911.695 62.4094 909.324 65.37L894.357 84.057C887.456 92.6734 885.106 104.077 888.04 114.72V114.72C890.263 122.787 889.471 131.388 885.813 138.914L871.321 168.724L866.596 181.871C864.311 188.232 860.984 194.168 856.752 199.438L837.848 222.977C828.541 234.566 824.391 249.465 826.367 264.197V264.197C826.827 267.626 826.958 271.091 826.759 274.545L823.798 325.823C823.627 328.795 823.85 331.777 824.463 334.69V334.69C827.083 347.149 836.508 357.065 848.819 360.312L895.299 372.57L912.889 375.763L940.294 382.367L989.111 392.829L1027 402.627" transform="translate(0 101.541)" stroke="#F6F6F6" stroke-width="2"/>
<path d="M7.73032 38.6035C3.85802 42.2821 4.58678 48.645 9.19053 51.3529V51.3529C10.9528 52.3894 12.2535 54.0588 12.8278 56.0209L13.8899 59.6494C16.3158 67.9377 26.3622 71.1326 33.13 65.7682V65.7682C35.191 64.1345 36.6674 61.8771 37.338 59.3341L38.264 55.8232C39.7586 50.1559 36.8596 44.2518 31.4614 41.9689L29.2734 41.0435C26.9149 40.0461 25.2294 37.894 24.8119 35.3676V35.3676C23.4973 27.4137 12.2132 26.8084 10.2438 34.626V34.626C9.89995 35.9911 9.17555 37.2305 8.15492 38.2001L7.73032 38.6035Z" transform="translate(665.7 296.719)" stroke="#F6F6F6" stroke-width="2"/>
<path d="M0 418.002L37.8883 397.386C44.4915 393.793 51.9511 392.073 59.461 392.411V392.411C63.3643 392.587 67.2728 392.207 71.0694 391.283L114.111 380.811L142.047 371.887L194.621 347.927C200.323 345.328 205.591 341.866 210.239 337.663L211.925 336.138C214.861 333.483 218.048 331.12 221.442 329.082L222.759 328.292C226.391 326.111 229.786 323.558 232.89 320.673L266.706 289.241C273.77 282.675 282.29 277.878 291.567 275.242L294.714 274.348C297.786 273.475 300.785 272.363 303.682 271.021L338.03 255.112C340.892 253.786 343.878 252.749 346.945 252.014L348.515 251.638C356.605 249.701 363.942 245.417 369.606 239.325V239.325C375.193 233.316 378.908 225.811 380.298 217.725L383.388 199.747C384.838 191.308 384.495 182.658 382.382 174.36L382.026 172.963C378.266 158.198 380.168 142.559 387.358 129.125L388.766 126.493C392.396 119.711 397.276 113.676 403.149 108.708L413.872 99.6359C423.03 91.8871 429.701 81.6097 433.049 70.0894L450.538 9.90727C450.994 8.33881 451.589 6.81413 452.315 5.35135L453.436 3.09583C453.686 2.59307 453.996 2.12266 454.359 1.69501L454.727 1.26271C454.922 1.034 455.149 0.835132 455.401 0.672474V0.672474C456.07 0.241188 456.881 0.0873113 457.661 0.243439L458.397 0.390459L465.551 1.09704C471.988 1.73275 476.164 8.18608 474.108 14.3186V14.3186C473.204 17.0137 473.481 19.9654 474.872 22.4448L493.12 54.9865C498.9 65.2952 501.562 77.0613 500.78 88.8543L500.709 89.9248C499.597 106.71 505.466 123.209 516.929 135.522L530.069 149.636C532.317 152.051 534.365 154.644 536.194 157.39L566.897 203.496C569.318 207.132 572.343 210.328 575.841 212.945L578.33 214.807C581.177 216.938 583.523 219.667 585.203 222.803V222.803C587.742 227.545 591.782 231.311 596.689 233.514L642.887 254.252C650.885 257.842 659.563 259.666 668.33 259.599L680.342 259.508C683.221 259.487 686.099 259.669 688.952 260.053L714.267 263.465C717.202 263.861 720.162 264.042 723.123 264.008L759.216 263.589C763.269 263.542 767.317 263.899 771.299 264.655L798.778 269.871L849.142 280.382L859.727 283.174L912.889 292.824L954.196 302.778L998.258 315.32L1027 322.752" transform="translate(0 226.439)" stroke="#F6F6F6" stroke-width="2"/>
<path d="M0 0L28.4144 20.1533C36.9537 26.2099 46.9081 29.9669 57.3197 31.0626L69.6046 32.3555C74.0901 32.8276 78.5094 33.7957 82.7815 35.2421L114.111 45.849L132.683 52.2141L144.544 57.7029C160.365 65.0243 167.718 83.425 161.299 99.6335V99.6335C157.997 107.971 151.432 114.597 143.125 117.976L125.601 125.105C118.018 128.189 109.893 129.716 101.709 129.594L59.3825 128.965C58.6707 128.955 57.9609 128.886 57.2601 128.761V128.761C56.5409 128.633 55.8123 128.565 55.0817 128.557L0 127.972" transform="translate(0 727.472)" stroke="#F6F6F6" stroke-width="2"/>
<path d="M320.564 52.4294L261.641 37.7496C252.072 35.3656 243.881 29.198 238.946 20.6602V20.6602C232.328 9.21285 220.019 2.25862 206.799 2.49804L185.009 2.89268C180.823 2.96848 176.646 2.49394 172.584 1.48126V1.48126C168.639 0.497775 164.585 0.021735 160.52 0.0646781L119.502 0.497975C115.915 0.535862 112.339 0.890016 108.814 1.55632L70.4129 8.81629L39.7214 12.7853L0 19.5753" transform="translate(0 973.57)" stroke="#F6F6F6" stroke-width="2"/>
<path d="M12.6481 16.8342C5.01301 25.3192 3.32947 37.6044 8.4004 47.8305L8.78546 48.607C10.6663 52.3999 13.4959 55.6419 16.9997 58.0183V58.0183C27.3605 65.0455 41.3493 63.1512 49.4682 53.6218L51.1191 51.684C52.62 49.9223 53.8916 47.9775 54.9035 45.8961L57.9045 39.723C60.672 34.0302 61.2709 27.5242 59.589 21.4219L59.1845 19.9543C57.4028 13.49 52.8612 8.14028 46.7717 5.33303V5.33303C39.5842 2.01953 31.1913 2.67801 24.6084 7.07189L19.8853 10.2244C17.7413 11.6555 15.7844 13.3488 14.0601 15.265L12.6481 16.8342Z" transform="translate(763.574 197.888)" stroke="#F6F6F6" stroke-width="2"/>
<path d="M271.638 0L222.772 12.5716C220.801 13.0788 218.869 13.7271 216.99 14.5115V14.5115C213.965 15.7746 210.805 16.6832 207.571 17.2191L157.527 25.5128L113.083 31.1402L84.867 34.1262L56.8464 37.5453C48 38.6248 39.4975 41.6296 31.9372 46.3483L23.4127 51.6687C21.8312 52.6558 20.3741 53.8529 19.0962 55.2104V55.2104C9.45876 65.4486 11.9482 82.1235 24.2444 88.9431V88.9431C26.6639 90.285 29.3191 91.1486 32.065 91.487L37.9002 92.2059C41.5665 92.6576 45.1741 93.5 48.6614 94.7188L62.5449 99.5713C67.6437 101.353 72.9565 102.45 78.3442 102.833L110.022 105.086C120.838 105.855 131.108 110.137 139.268 117.279V117.279C150.792 127.365 166.318 131.584 181.363 128.716L200.811 125.008C204.344 124.335 207.929 123.975 211.525 123.933L223.243 123.797L271.638 116.986" transform="translate(755.362 608.836)" stroke="#F6F6F6" stroke-width="2"/>
<path d="M435.115 632.525L433.125 631.183C431.962 630.399 431.062 629.285 430.54 627.983V627.983C429.483 625.344 426.934 623.607 424.091 623.588L422.549 623.577C420.76 623.565 419.012 623.037 417.515 622.055L376.982 595.474C367.068 588.972 355.473 585.5 343.617 585.483L329.359 585.463C319.711 585.449 310.204 583.147 301.618 578.746L282.977 569.19C274.739 564.967 267.57 558.924 262.014 551.519L242.606 525.656C239.112 521 236.303 515.868 234.263 510.415L230.025 499.085C228.244 494.324 227.065 489.358 226.516 484.304L219.975 424.115L215.073 404.747V404.747C213.605 397.254 208.253 391.112 201.032 388.631L200.569 388.472L172.887 377.119L132.75 358.545L86.4581 342.68L54.698 331.927C50.0614 330.357 45.7319 327.967 41.9307 324.882V324.882C20.8515 307.778 21.7459 275.254 43.8012 259.429V259.429C48.0917 256.35 52.9346 254.126 58.0657 252.877L86.4581 245.97L138.831 229.24L156.067 221.385L200.569 203.888L207.069 202.034C216.137 199.449 223.359 192.58 226.395 183.654V183.654C227.889 179.263 230.423 175.299 233.782 172.1L265.386 141.998C270.216 137.398 275.768 133.621 281.82 130.818L309.162 118.153C312.832 116.453 316.661 115.123 320.594 114.181L339.197 109.727C350.883 106.928 361.483 100.74 369.665 91.9393L386.155 74.2031C392.903 66.9455 397.39 57.8793 399.069 48.1126L399.885 43.3628C400.765 38.2446 402.889 33.421 406.07 29.3163V29.3163C418 13.9233 440.861 12.8307 454.205 27.0159L459.396 32.5349L480.975 63.0805L502.105 95.8982C504.165 99.0975 506.52 102.097 509.139 104.857L525.547 122.155C536.602 133.808 552.056 140.261 568.114 139.931V139.931C576.123 139.767 584.008 137.917 591.256 134.504L594.896 132.789C602.886 129.025 611.597 127.042 620.428 126.975L652.689 126.73C655.568 126.708 658.446 126.89 661.299 127.275L695.876 131.935C699.545 132.43 703.161 133.257 706.68 134.407L739.095 145.003L771.125 151.082L792.576 155.559L873.941 165.697L885.236 167.747L892.679 169.54L895.093 170.227C902.931 172.458 903.574 183.319 896.054 186.459V186.459C895.44 186.715 894.799 186.9 894.143 187.008L885.236 188.485L872.022 190.158L795.309 201.107L784.555 202.419C775.709 203.499 767.207 206.503 759.646 211.222L723.311 233.9C719.53 236.26 716.047 239.121 712.993 242.366V242.366C689.956 266.839 695.907 306.698 725.299 322.999V322.999C731.082 326.207 737.429 328.271 743.993 329.08L764.632 331.622C768.948 332.154 773.195 333.146 777.3 334.581L812.768 346.977C820.701 349.75 827.975 354.131 834.135 359.847L882.519 404.747L882.976 405.302C883.479 405.913 884.136 406.38 884.878 406.655V406.655C885.116 406.743 885.361 406.81 885.61 406.857L885.926 406.916C887.126 407.139 888.361 407.094 889.541 406.782L897.251 404.747L970.267 381.949C973.429 380.961 976.666 380.233 979.946 379.772L999.347 377.041" transform="translate(27.6527 393.475)" stroke="#F6F6F6" stroke-width="2"/>
<path d="M17.4889 7.77614C7.06297 12.6872 0.990502 23.7584 2.45263 35.19V35.19C4.23393 49.1172 16.5416 59.2558 30.5522 58.3374L36.5163 57.9465C44.9571 57.3932 52.8613 53.6134 58.5908 47.3904L67.4065 37.8154C68.7065 36.4035 70.2406 35.2267 71.9412 34.3371V34.3371C85.0067 27.5021 83.4098 8.3144 69.3942 3.73325L65.4003 2.42777C64.3368 2.08018 63.244 1.83011 62.1352 1.68067L53.515 0.518846C50.9518 0.173382 48.3674 0.00984181 45.7811 0.0294516L42.3939 0.055134C36.6933 0.0983575 31.07 1.37887 25.9127 3.80817L17.4889 7.77614Z" transform="translate(635.001 554.43)" stroke="#F6F6F6" stroke-width="2"/>
<path d="M937.338 333.394V333.394C923.005 324.069 905.397 321.24 888.864 325.604L873.448 329.673C864.717 331.977 855.583 332.315 846.706 330.661L828.338 327.238C824.937 326.605 821.596 325.683 818.352 324.483L816.755 323.892C806.629 320.148 797.679 313.783 790.818 305.447L783.275 296.284L754.186 269.29C748.026 263.574 740.752 259.192 732.819 256.42L715.291 250.293C711.186 248.859 706.94 247.867 702.624 247.335L656.199 241.616C654.796 241.443 653.374 241.505 651.991 241.8V241.8C649.989 242.227 647.914 242.165 645.941 241.618L599.598 228.767C596.541 227.919 593.422 227.312 590.27 226.949L577.85 225.52C562.815 223.79 548.96 216.533 538.977 205.159L527.513 192.097C522.088 185.916 519.511 177.739 520.414 169.564V169.564C522.223 153.179 510.158 138.53 493.73 137.164L487.029 136.607C482.969 136.27 478.996 135.242 475.281 133.568L456.517 125.116C442.213 118.672 430.942 106.966 425.045 92.4284L419.6 79.0044C416.785 72.065 412.716 65.7032 407.597 60.2373L394.391 46.1365C392.724 44.3557 391.265 42.3898 390.045 40.2772L383.614 29.1421C375.502 15.0963 355.823 13.5574 345.626 26.1713V26.1713C339.858 33.3066 330.415 36.3542 321.564 33.9374L306.346 29.7819C298.684 27.6897 290.618 27.5626 282.893 29.4123L258.586 35.2331C254.653 36.1749 250.823 37.5054 247.154 39.205L240.01 42.5139C233.958 45.3171 228.406 49.094 223.577 53.6941L218.877 58.1701C211.748 64.9599 206.369 73.3743 203.198 82.6946L200.709 90.0106C194.264 108.957 178.934 123.537 159.688 129.026L138.561 135.051L104.53 148.43L43.1554 163.726L24.4496 169.701L16.4205 171.655C14.9695 172.008 13.5999 172.637 12.3866 173.507V173.507C6.14955 177.983 5.89662 187.18 11.8576 192.017V192.017C12.9326 192.889 14.1569 193.565 15.4682 194.009L24.4496 197.05L46.8121 204.714L100.825 220.057L138.561 235.534L150.567 239.658C171.161 246.733 186.422 264.249 190.61 285.618L192.7 296.284L203.203 337.78C204.261 341.961 205.759 346.017 207.673 349.881L222.729 380.288L232.106 405.356C233.301 408.551 234.947 411.558 236.995 414.287L238.401 416.161C240.732 419.267 243.738 421.801 247.194 423.573V423.573C250.794 425.418 254.782 426.384 258.828 426.39L259.942 426.391C265.81 426.4 271.553 424.699 276.471 421.497L293.864 410.173L334.139 385.064C337.205 383.153 340.435 381.518 343.79 380.178L354.798 375.783C362.536 372.693 371.119 372.45 379.02 375.096V375.096C389.784 378.702 398.148 387.281 401.478 398.134L403.52 404.788C404.618 408.366 406.125 411.806 408.011 415.039L427.166 447.884C431.042 454.529 436.139 460.381 442.19 465.132L472.508 488.936C478.057 493.292 484.319 496.653 491.016 498.869L502.371 502.626L594.947 524.004L594.987 524.015C594.999 524.018 595.01 524.025 595.019 524.034V524.034C595.024 524.038 595.028 524.044 595.031 524.05L595.038 524.062" transform="translate(89.6614 501.938)" stroke="#F6F6F6" stroke-width="2"/>
<path d="M122.673 0L102.037 18.2075C95.0561 24.3667 86.7583 28.8464 77.7789 31.3035L24.92 45.7678C21.8509 46.6076 18.8522 47.6863 15.9513 48.994L8.56176 52.3252V52.3252C5.48063 53.4598 2.75786 55.3956 0.674185 57.9332L0 58.7542" transform="translate(904.327 967.246)" stroke="#F6F6F6" stroke-width="2"/>
<path d="M21.8034 5.37261C15.8491 6.8565 15.7123 15.2697 21.6151 16.9465V16.9465L27.7672 19.4695L33.0385 21.2804C37.6031 22.8485 42.6249 20.808 44.8021 16.5005V16.5005C46.5478 13.0468 46.0647 8.88482 43.5743 5.92285L43.0937 5.35122C40.3563 2.09536 35.962 0.750749 31.8714 1.91729L27.7672 3.0877L22.2191 5.26901L21.8034 5.37261Z" transform="translate(200.455 673.527)" stroke="#F6F6F6" stroke-width="2"/>
<path d="M4.94463 40.735L8.21703 53.6644C8.76799 55.8413 9.54822 57.9536 10.5447 59.9659L10.7265 60.3331C18.658 76.3509 38.3494 82.5151 53.9985 73.879V73.879C55.9213 72.8179 57.9502 71.9616 60.0519 71.3243L129.997 50.1123L136.42 47.5475C138.339 46.7812 140.468 46.7209 142.427 47.3773L143.107 47.605C146.001 48.5744 149.194 47.7277 151.228 45.4516V45.4516C153.672 42.7155 153.826 38.6276 151.593 35.716L150.485 34.2705C149.186 32.5771 147.372 31.3519 145.316 30.7798L139.392 29.1312L132.708 28.1796C128.138 27.5291 123.658 26.362 119.351 24.7009L71.3733 6.1935C65.8808 4.07482 60.1107 2.76235 54.2422 2.29691L34.7127 0.748015C28.5833 0.261885 22.4575 1.73157 17.2159 4.94585V4.94585C6.86476 11.2934 1.5486 23.4054 3.88368 35.3211L4.94463 40.735Z" transform="translate(317.052 757.487)" stroke="#F6F6F6" stroke-width="2"/>
<path d="M2.68702 2.1292C2.03499 2.75023 1.53589 3.52657 1.24588 4.37904L1.22211 4.44893C0.487068 6.60956 1.17 8.9995 2.93565 10.4455V10.4455C4.22133 11.4985 5.91581 11.9102 7.54131 11.5647L10.8307 10.8653C11.8705 10.6443 12.8167 10.1076 13.5401 9.32866V9.32866C16.1796 6.48635 14.8589 1.8573 11.117 0.835553L9.57249 0.413804C8.57824 0.142318 7.5316 0.125818 6.52929 0.365827L5.61642 0.584416C5.18632 0.687406 4.76753 0.832916 4.36623 1.0188L4.21275 1.08989C3.65262 1.34934 3.13402 1.70347 2.68702 2.1292V2.1292Z" transform="translate(337.364 567.363)" stroke="#F6F6F6" stroke-width="2"/>
<path d="M297.629 255.127L312.456 237.071C319.341 228.685 328.339 222.288 338.52 218.539L353.894 212.878L395.066 194.318C400.546 191.847 405.595 188.514 410.02 184.444L413.345 181.386C436.505 160.084 435.713 123.291 411.658 103.005V103.005C404.746 97.176 396.439 93.2408 387.55 91.5845L359.004 86.2658C355.603 85.6321 352.263 84.7103 349.018 83.5103L326.979 75.3594C316.854 71.6145 307.904 65.2496 301.043 56.9145L276.706 27.3492L266.7 18.064C260.68 12.4775 253.571 8.19507 245.818 5.48533V5.48533C241.806 4.08316 237.655 3.11398 233.438 2.59432L222.549 1.25287C215.817 0.423432 208.993 0.722708 202.36 2.13838L145.62 14.2466C139.921 15.4628 133.995 15.2801 128.38 13.7229V13.7229C126.581 13.224 124.74 12.8648 122.885 12.6514V12.6514C114.189 11.6509 105.427 13.8625 98.2468 18.8702L93.3808 22.2641C88.5559 25.6293 84.3423 29.7953 80.9223 34.5816L55.0652 70.7692L11.5605 119.337L7.61031 122.878C2.9704 127.037 1.17038 133.514 2.99857 139.471V139.471C3.35888 140.645 3.8533 141.774 4.47204 142.835L4.79652 143.391C5.91633 145.311 7.38921 147.002 9.1375 148.375V148.375C10.7407 149.633 12.55 150.605 14.485 151.245L25.1091 154.76L88.0789 178.758L110.639 185.178C120.501 187.985 129.497 193.232 136.795 200.436L152.614 216.051C156.686 220.071 160.172 224.643 162.97 229.634L177.261 255.127" transform="translate(558.995 770.873)" stroke="#F6F6F6" stroke-width="2"/>
<path d="M99.4279 226.786L145.495 170.684L146 169.887C146.092 169.741 146.255 169.654 146.427 169.658V169.658C146.489 169.66 146.551 169.649 146.609 169.628L203.395 148.717L223.981 139.437C226.721 138.202 229.246 136.535 231.458 134.5L233.12 132.971C244.7 122.32 244.304 103.924 232.277 93.7806V93.7806C228.821 90.866 224.667 88.8984 220.223 88.0703L208.505 85.887C205.104 85.2534 201.764 84.3315 198.519 83.1315L164.921 70.7053C160.931 69.2297 156.701 68.5121 152.447 68.5896V68.5896C140.568 68.8059 129.43 62.8359 123.034 52.8242L119.709 47.6211C104.112 23.2094 69.8997 19.5661 49.5117 40.1456L38.1548 51.6092C34.7612 55.0347 31.8072 58.8693 29.3608 63.0246L24.1721 71.8382C9.96717 95.9668 14.0126 126.668 33.9829 146.293L36.4925 148.759C42.1027 154.272 46.5936 160.819 49.7179 168.037L64.393 201.944L78.3197 226.786" transform="translate(709.494 799.214)" stroke="#F6F6F6" stroke-width="2"/>
</svg>
