<svg width="12" height="12" viewBox="0 0 12 12" fill="none" xmlns="http://www.w3.org/2000/svg">
<path fill-rule="evenodd" clip-rule="evenodd" d="M7.99981 1.24762e-08C7.44765 -8.63043e-05 6.99984 0.447725 6.99992 0.999893L6.99988 6.9999L0.999893 6.99996C0.447703 6.99986 -0.000107876 7.44767 1.94933e-08 7.99986C-6.47181e-05 8.55222 0.447639 8.99992 1 8.99986L6.99979 8.99994L6.99981 15C6.99992 15.5522 7.44762 15.9999 7.99981 16C8.55218 16 8.99982 15.5523 8.99988 15L8.99986 8.99988L14.9999 8.9999C15.5523 8.99984 15.9999 8.5522 16 7.99984C15.9999 7.44767 15.5522 6.99994 15 6.99986L8.99992 6.99981L8.99982 1C8.9999 0.44766 8.55218 -6.47251e-05 7.99981 1.24762e-08Z" transform="translate(6 -5.31372) rotate(45)" fill="#7E8796"/>
</svg>
